<svg xmlns="http://www.w3.org/2000/svg" width="32" height="32" viewBox="0 0 32 32" fill="none">
<path fill-rule="evenodd" clip-rule="evenodd" d="M16 27.5C22.6274 27.5 28 22.1274 28 15.5C28 8.87258 22.6274 3.5 16 3.5C9.37258 3.5 4 8.87258 4 15.5C4 22.1274 9.37258 27.5 16 27.5ZM21.6441 12.3719C21.9045 12.0714 21.872 11.6167 21.5716 11.3563C21.2711 11.0959 20.8163 11.1283 20.5559 11.4288L14.8223 18.0445L12.0091 15.2313C11.7279 14.9501 11.2721 14.9501 10.9909 15.2313C10.7097 15.5125 10.7097 15.9683 10.9909 16.2495L14.3509 19.6095C14.4922 19.7508 14.6859 19.8271 14.8857 19.8199C15.0854 19.8128 15.2732 19.723 15.4041 19.5719L21.6441 12.3719Z" fill="#1FA37E"/>
</svg>
